<svg xmlns="http://www.w3.org/2000/svg" width="200" height="200" viewBox="0 0 200 200" fill="none">
  <!-- Bishop head/top -->
  <path d="M100 20C89 20 80 29 80 40C80 48 85 55 92 58L88 80H112L108 58C115 55 120 48 120 40C120 29 111 20 100 20Z" fill="url(#gradient1)"/>
  
  <!-- Bishop body -->
  <path d="M88 80L75 140H125L112 80H88Z" fill="url(#gradient2)"/>
  
  <!-- Base/stand -->
  <path d="M65 140H135V155C135 157 133 160 130 160H70C67 160 65 157 65 155V140Z" fill="url(#gradient3)"/>
  
  <!-- Business chart line (rising trend) -->
  <path d="M85 120L95 95L105 110L115 90" stroke="#ffffff" stroke-width="3" stroke-linecap="round" stroke-linejoin="round"/>
  
  <!-- Small dots representing data points -->
  <circle cx="85" cy="120" r="3" fill="#ffffff"/>
  <circle cx="95" cy="95" r="3" fill="#ffffff"/>
  <circle cx="105" cy="110" r="3" fill="#ffffff"/>
  <circle cx="115" cy="90" r="3" fill="#ffffff"/>
  
  <!-- Small crown/cross on top of bishop -->
  <path d="M100 25L105 33H95L100 25Z" fill="#ffffff"/>
  <rect x="98" y="20" width="4" height="8" rx="1" fill="#ffffff"/>
  
  <defs>
    <!-- Gradient definitions -->
    <linearGradient id="gradient1" x1="80" y1="20" x2="120" y2="80" gradientUnits="userSpaceOnUse">
      <stop offset="0" stop-color="#3b82f6"/> <!-- primary color -->
      <stop offset="1" stop-color="#4f46e5"/> <!-- secondary color -->
    </linearGradient>
    
    <linearGradient id="gradient2" x1="75" y1="80" x2="125" y2="140" gradientUnits="userSpaceOnUse">
      <stop offset="0" stop-color="#4f46e5"/> <!-- secondary color -->
      <stop offset="1" stop-color="#7c3aed"/> <!-- blend -->
    </linearGradient>
    
    <linearGradient id="gradient3" x1="65" y1="140" x2="135" y2="160" gradientUnits="userSpaceOnUse">
      <stop offset="0" stop-color="#7c3aed"/> <!-- blend -->
      <stop offset="1" stop-color="#ea580c"/> <!-- accent color -->
    </linearGradient>
  </defs>
</svg>