<svg width="48" height="48" viewBox="0 0 48 48" fill="none" xmlns="http://www.w3.org/2000/svg">
  <!-- Background Circle -->
  <circle cx="24" cy="24" r="24" fill="url(#gradient)"/>
  
  <!-- Shopping bag icon -->
  <g transform="translate(12,10)">
    <path d="M4 8L7 5L17 5L20 8L20 22C20 23.1 19.1 24 18 24L6 24C4.9 24 4 23.1 4 22L4 8Z" fill="white" fill-opacity="0.9"/>
    <path d="M7 5C7 3.3 8.3 2 10 2C11.7 2 13 3.3 13 5" stroke="white" stroke-width="2" fill="none"/>
    
    <!-- Small shopping items inside -->
    <circle cx="9" cy="13" r="1.5" fill="url(#accent)"/>
    <circle cx="13" cy="16" r="1.5" fill="url(#accent)"/>
    <rect x="11" y="10" width="2" height="2" rx="0.5" fill="url(#accent)"/>
  </g>
  
  <!-- Gradients -->
  <defs>
    <linearGradient id="gradient" x1="0%" y1="0%" x2="100%" y2="100%">
      <stop offset="0%" style="stop-color:#3B82F6;stop-opacity:1" />
      <stop offset="50%" style="stop-color:#8B5CF6;stop-opacity:1" />
      <stop offset="100%" style="stop-color:#EC4899;stop-opacity:1" />
    </linearGradient>
    <linearGradient id="accent" x1="0%" y1="0%" x2="100%" y2="100%">
      <stop offset="0%" style="stop-color:#F59E0B;stop-opacity:1" />
      <stop offset="100%" style="stop-color:#EF4444;stop-opacity:1" />
    </linearGradient>
  </defs>
</svg>