<svg width="200" height="200" viewBox="0 0 200 200" fill="none" xmlns="http://www.w3.org/2000/svg">
  <rect width="200" height="200" rx="20" fill="#FAF5FF"/>
  <!-- Diamond -->
  <polygon points="100,40 120,70 100,100 80,70" fill="#A855F7"/>
  <polygon points="100,40 110,55 100,70 90,55" fill="#C084FC"/>
  <!-- Ring -->
  <circle cx="70" cy="130" r="20" stroke="#9333EA" stroke-width="4" fill="none"/>
  <polygon points="70,115 75,120 70,125 65,120" fill="#A855F7"/>
  <!-- Necklace -->
  <path d="M130 120 C140 110, 160 110, 170 120 C160 130, 140 130, 130 120" stroke="#9333EA" stroke-width="3" fill="none"/>
  <circle cx="135" cy="125" r="2" fill="#A855F7"/>
  <circle cx="145" cy="128" r="2" fill="#A855F7"/>
  <circle cx="155" cy="128" r="2" fill="#A855F7"/>
  <circle cx="165" cy="125" r="2" fill="#A855F7"/>
  <!-- Pendant -->
  <polygon points="150,135 155,145 150,155 145,145" fill="#C084FC"/>
  <!-- Earrings -->
  <circle cx="50" cy="80" r="6" fill="#A855F7"/>
  <circle cx="50" cy="90" r="4" fill="#C084FC"/>
  <circle cx="150" cy="80" r="6" fill="#A855F7"/>
  <circle cx="150" cy="90" r="4" fill="#C084FC"/>
  <!-- Bracelet -->
  <path d="M120 160 C130 150, 150 150, 160 160 C150 170, 130 170, 120 160" stroke="#9333EA" stroke-width="3" fill="none"/>
  <circle cx="125" cy="165" r="2" fill="#A855F7"/>
  <circle cx="135" cy="168" r="2" fill="#A855F7"/>
  <circle cx="145" cy="168" r="2" fill="#A855F7"/>
  <circle cx="155" cy="165" r="2" fill="#A855F7"/>
</svg>