<svg width="200" height="200" viewBox="0 0 200 200" fill="none" xmlns="http://www.w3.org/2000/svg">
  <rect width="200" height="200" rx="20" fill="#EEF2FF"/>
  <!-- Soccer ball -->
  <circle cx="80" cy="80" r="20" fill="#FFFFFF" stroke="#1E40AF" stroke-width="2"/>
  <polygon points="80,65 85,75 75,75" fill="#1E40AF"/>
  <polygon points="80,95 75,85 85,85" fill="#1E40AF"/>
  <polygon points="65,80 75,75 75,85" fill="#1E40AF"/>
  <polygon points="95,80 85,85 85,75" fill="#1E40AF"/>
  <!-- Basketball -->
  <circle cx="130" cy="70" r="18" fill="#F59E0B"/>
  <path d="M130 52 L130 88" stroke="#1E40AF" stroke-width="2"/>
  <path d="M112 70 L148 70" stroke="#1E40AF" stroke-width="2"/>
  <path d="M118 58 C125 65, 125 75, 118 82" stroke="#1E40AF" stroke-width="2" fill="none"/>
  <path d="M142 58 C135 65, 135 75, 142 82" stroke="#1E40AF" stroke-width="2" fill="none"/>
  <!-- Tennis racket -->
  <ellipse cx="60" cy="140" rx="12" ry="20" stroke="#1E40AF" stroke-width="3" fill="none"/>
  <rect x="55" y="160" width="10" height="25" fill="#D97706"/>
  <!-- Grid on racket -->
  <line x1="50" y1="130" x2="70" y2="130" stroke="#1E40AF" stroke-width="1"/>
  <line x1="50" y1="140" x2="70" y2="140" stroke="#1E40AF" stroke-width="1"/>
  <line x1="50" y1="150" x2="70" y2="150" stroke="#1E40AF" stroke-width="1"/>
  <line x1="55" y1="125" x2="55" y2="155" stroke="#1E40AF" stroke-width="1"/>
  <line x1="65" y1="125" x2="65" y2="155" stroke="#1E40AF" stroke-width="1"/>
  <!-- Dumbbell -->
  <rect x="120" y="120" width="40" height="6" fill="#6B7280"/>
  <rect x="115" y="115" width="10" height="16" fill="#374151"/>
  <rect x="155" y="115" width="10" height="16" fill="#374151"/>
  <!-- Whistle -->
  <ellipse cx="140" cy="160" rx="8" ry="6" fill="#6B7280"/>
  <circle cx="145" cy="160" r="2" fill="#FFFFFF"/>
  <path d="M148 160 L155 155" stroke="#1E40AF" stroke-width="2"/>
  <!-- Trophy -->
  <rect x="85" y="170" width="12" height="8" fill="#F59E0B"/>
  <ellipse cx="91" cy="170" rx="8" ry="6" fill="#FCD34D"/>
  <path d="M83 170 C78 175, 78 180, 83 185 L99 185 C104 180, 104 175, 99 170" fill="#F59E0B"/>
  <rect x="89" y="185" width="4" height="8" fill="#D97706"/>
  <rect x="86" y="190" width="10" height="3" fill="#D97706"/>
</svg>