<svg width="200" height="200" viewBox="0 0 200 200" fill="none" xmlns="http://www.w3.org/2000/svg">
  <rect width="200" height="200" rx="20" fill="#FFFBEB"/>
  <!-- Notebook -->
  <rect x="70" y="50" width="60" height="80" rx="4" fill="#F59E0B"/>
  <rect x="75" y="55" width="50" height="70" fill="#FEF3C7"/>
  <!-- Spiral binding -->
  <circle cx="85" cy="60" r="2" fill="#D97706"/>
  <circle cx="85" cy="70" r="2" fill="#D97706"/>
  <circle cx="85" cy="80" r="2" fill="#D97706"/>
  <circle cx="85" cy="90" r="2" fill="#D97706"/>
  <circle cx="85" cy="100" r="2" fill="#D97706"/>
  <circle cx="85" cy="110" r="2" fill="#D97706"/>
  <circle cx="85" cy="120" r="2" fill="#D97706"/>
  <!-- Lines on paper -->
  <line x1="90" y1="65" x2="115" y2="65" stroke="#D97706" stroke-width="1"/>
  <line x1="90" y1="75" x2="115" y2="75" stroke="#D97706" stroke-width="1"/>
  <line x1="90" y1="85" x2="115" y2="85" stroke="#D97706" stroke-width="1"/>
  <!-- Pencil -->
  <rect x="40" y="140" width="4" height="40" fill="#FCD34D"/>
  <polygon points="40,140 44,140 42,130" fill="#F59E0B"/>
  <rect x="40" y="175" width="4" height="5" fill="#EC4899"/>
  <!-- Pen -->
  <rect x="150" y="140" width="4" height="40" fill="#3B82F6"/>
  <polygon points="150,140 154,140 152,130" fill="#1E40AF"/>
  <rect x="150" y="175" width="4" height="5" fill="#1E40AF"/>
  <!-- Ruler -->
  <rect x="100" y="140" width="30" height="4" fill="#64748B"/>
  <line x1="105" y1="140" x2="105" y2="144" stroke="#374151" stroke-width="1"/>
  <line x1="110" y1="140" x2="110" y2="144" stroke="#374151" stroke-width="1"/>
  <line x1="115" y1="140" x2="115" y2="144" stroke="#374151" stroke-width="1"/>
  <line x1="120" y1="140" x2="120" y2="144" stroke="#374151" stroke-width="1"/>
  <line x1="125" y1="140" x2="125" y2="144" stroke="#374151" stroke-width="1"/>
</svg>